<svg xmlns="http://www.w3.org/2000/svg" viewBox="11505.356 755 28.429 28.429"><defs><style>.a{fill:#00a1e1;}</style></defs><g transform="translate(11505.356 755)"><path class="a" d="M616.914,0a14.214,14.214,0,1,0,14.214,14.214A14.228,14.228,0,0,0,616.914,0Zm0,26.892a12.679,12.679,0,1,1,12.678-12.678,12.635,12.635,0,0,1-12.678,12.678Zm0,0" transform="translate(-602.7)"/><path class="a" d="M672.673,80.737a1.537,1.537,0,1,1-1.537-1.537,1.532,1.532,0,0,1,1.537,1.537Zm0,0" transform="translate(-661.568 -69.692)"/><path class="a" d="M751.873,80.737a1.537,1.537,0,1,1-1.537-1.537,1.532,1.532,0,0,1,1.537,1.537Zm0,0" transform="translate(-731.26 -69.692)"/><path class="a" d="M666.519,148.274a8.929,8.929,0,0,0,7.455-4.046l-1.3-.828a7.317,7.317,0,0,1-12.281,0l-1.3.828a8.929,8.929,0,0,0,6.4,3.986,10.087,10.087,0,0,0,1.02.06Zm0,0" transform="translate(-652.329 -126.184)"/></g></svg>