<svg xmlns="http://www.w3.org/2000/svg" viewBox="11469.184 755 28.428 28.429"><defs><style>.a{fill:#00a1e1;}</style></defs><g transform="translate(11469.184 755)"><path class="a" d="M315.614,0a14.214,14.214,0,1,0,14.214,14.214A14.228,14.228,0,0,0,315.614,0Zm0,26.892a12.679,12.679,0,1,1,12.678-12.678,12.635,12.635,0,0,1-12.678,12.678Zm0,0" transform="translate(-301.4)"/><path class="a" d="M371.373,80.737a1.537,1.537,0,1,1-1.537-1.537,1.532,1.532,0,0,1,1.537,1.537Zm0,0" transform="translate(-360.268 -69.692)"/><path class="a" d="M450.573,80.737a1.537,1.537,0,1,1-1.537-1.537,1.532,1.532,0,0,1,1.537,1.537Zm0,0" transform="translate(-429.96 -69.692)"/><path class="a" d="M384.858,143.4m4.85,3.554H380.2v-1.537h9.508Z" transform="translate(-370.74 -126.184)"/></g></svg>