<svg xmlns="http://www.w3.org/2000/svg" viewBox="11433 755 28.429 28.429"><defs><style>.a{fill:#00a1e1;}</style></defs><g transform="translate(11433 755)"><path class="a" d="M14.214,0A14.214,14.214,0,1,0,28.429,14.214,14.228,14.228,0,0,0,14.214,0Zm0,26.892A12.679,12.679,0,1,1,26.892,14.214,12.635,12.635,0,0,1,14.214,26.892Zm0,0"/><path class="a" d="M69.973,80.737A1.537,1.537,0,1,1,68.437,79.2a1.532,1.532,0,0,1,1.537,1.537Zm0,0" transform="translate(-58.868 -69.692)"/><path class="a" d="M149.173,80.737a1.537,1.537,0,1,1-1.537-1.537,1.532,1.532,0,0,1,1.537,1.537Zm0,0" transform="translate(-128.56 -69.692)"/><path class="a" d="M63.955,143.4a8.93,8.93,0,0,0-7.455,4.046l1.3.828a7.317,7.317,0,0,1,12.281,0l1.3-.828a8.929,8.929,0,0,0-6.4-3.986,7.492,7.492,0,0,0-1.02-.06Zm0,0" transform="translate(-49.717 -126.184)"/></g></svg>